<mxfile host="app.diagrams.net" modified="2021-06-28T14:44:11.286Z" agent="5.0 (Windows NT 10.0; Win64; x64) AppleWebKit/537.36 (KHTML, like Gecko) Chrome/91.0.4472.124 Safari/537.36" etag="rm36OfRT4_cOInvvsYqG" version="14.8.2" type="github" pages="2">
  <diagram id="2fkcVGOvUkkj5CyFWDu6" name="StateMachine">
    <mxGraphModel dx="1022" dy="1594" grid="1" gridSize="10" guides="1" tooltips="1" connect="1" arrows="1" fold="1" page="0" pageScale="1" pageWidth="827" pageHeight="1169" math="0" shadow="0">
      <root>
        <mxCell id="0" />
        <mxCell id="1" parent="0" />
        <mxCell id="2" value="Ability" style="rounded=0;whiteSpace=wrap;html=1;shadow=0;fillColor=#fff2cc;strokeColor=#d6b656;fontStyle=1;verticalAlign=top;align=left;" parent="1" vertex="1">
          <mxGeometry x="820" y="-330" width="590" height="180" as="geometry" />
        </mxCell>
        <mxCell id="3" value="Touching Wall" style="rounded=0;whiteSpace=wrap;html=1;shadow=0;fillColor=#fff2cc;strokeColor=#d6b656;fontStyle=1;verticalAlign=top;" parent="1" vertex="1">
          <mxGeometry x="960" y="360" width="400" height="240" as="geometry" />
        </mxCell>
        <mxCell id="4" value="Grounded" style="rounded=0;whiteSpace=wrap;html=1;shadow=0;fillColor=#fff2cc;strokeColor=#d6b656;fontStyle=1;verticalAlign=top;" parent="1" vertex="1">
          <mxGeometry x="440" y="-90" width="400" height="420" as="geometry" />
        </mxCell>
        <mxCell id="5" value="Move State" style="rounded=1;whiteSpace=wrap;html=1;fillColor=#dae8fc;strokeColor=#6c8ebf;fontStyle=1;verticalAlign=middle;" parent="1" vertex="1">
          <mxGeometry x="450" y="60" width="120" height="40" as="geometry" />
        </mxCell>
        <mxCell id="6" value="Idle State" style="rounded=1;whiteSpace=wrap;html=1;fillColor=#dae8fc;strokeColor=#6c8ebf;fontStyle=1;verticalAlign=middle;" parent="1" vertex="1">
          <mxGeometry x="707" y="60" width="120" height="40" as="geometry" />
        </mxCell>
        <mxCell id="7" value="Jump State" style="rounded=1;whiteSpace=wrap;html=1;fillColor=#dae8fc;strokeColor=#6c8ebf;fontStyle=1;verticalAlign=middle;" parent="1" vertex="1">
          <mxGeometry x="1090" y="-210" width="120" height="40" as="geometry" />
        </mxCell>
        <mxCell id="8" value="In Air State" style="rounded=1;whiteSpace=wrap;html=1;fillColor=#dae8fc;strokeColor=#6c8ebf;fontStyle=1;verticalAlign=middle;" parent="1" vertex="1">
          <mxGeometry x="1100" y="90" width="120" height="40" as="geometry" />
        </mxCell>
        <mxCell id="9" value="Ledge Climb" style="rounded=1;whiteSpace=wrap;html=1;fillColor=#dae8fc;strokeColor=#6c8ebf;fontStyle=1;verticalAlign=middle;" parent="1" vertex="1">
          <mxGeometry x="480" y="460" width="120" height="40" as="geometry" />
        </mxCell>
        <mxCell id="10" value="Dash State&lt;br&gt;" style="rounded=1;whiteSpace=wrap;html=1;fillColor=#dae8fc;strokeColor=#6c8ebf;fontStyle=1;verticalAlign=middle;" parent="1" vertex="1">
          <mxGeometry x="1010" y="-270" width="120" height="40" as="geometry" />
        </mxCell>
        <mxCell id="11" value="Wall Slide State" style="rounded=1;whiteSpace=wrap;html=1;fillColor=#dae8fc;strokeColor=#6c8ebf;fontStyle=1;verticalAlign=middle;" parent="1" vertex="1">
          <mxGeometry x="1220" y="410" width="120" height="40" as="geometry" />
        </mxCell>
        <mxCell id="12" value="Wall Grab State" style="rounded=1;whiteSpace=wrap;html=1;fillColor=#d5e8d4;strokeColor=#82b366;fontStyle=1;verticalAlign=middle;" parent="1" vertex="1">
          <mxGeometry x="980" y="410" width="120" height="40" as="geometry" />
        </mxCell>
        <mxCell id="13" value="Primary Attack State&amp;nbsp;" style="rounded=1;whiteSpace=wrap;html=1;fillColor=#dae8fc;strokeColor=#6c8ebf;fontStyle=1;verticalAlign=middle;" parent="1" vertex="1">
          <mxGeometry x="850" y="-270" width="120" height="40" as="geometry" />
        </mxCell>
        <mxCell id="14" value="Wall Jump State" style="rounded=1;whiteSpace=wrap;html=1;fillColor=#dae8fc;strokeColor=#6c8ebf;fontStyle=1;verticalAlign=middle;" parent="1" vertex="1">
          <mxGeometry x="1170" y="-270.0000000000001" width="120" height="40" as="geometry" />
        </mxCell>
        <mxCell id="15" value="Wall Climb State&lt;br&gt;" style="rounded=1;whiteSpace=wrap;html=1;fillColor=#d5e8d4;strokeColor=#82b366;fontStyle=1;verticalAlign=middle;" parent="1" vertex="1">
          <mxGeometry x="980" y="530" width="120" height="40" as="geometry" />
        </mxCell>
        <mxCell id="16" value="Crouch Idle State" style="rounded=1;whiteSpace=wrap;html=1;fillColor=#dae8fc;strokeColor=#6c8ebf;fontStyle=1;verticalAlign=middle;" parent="1" vertex="1">
          <mxGeometry x="707" y="220" width="120" height="40" as="geometry" />
        </mxCell>
        <mxCell id="17" value="Crouch Move State" style="rounded=1;whiteSpace=wrap;html=1;fillColor=#dae8fc;strokeColor=#6c8ebf;fontStyle=1;verticalAlign=middle;" parent="1" vertex="1">
          <mxGeometry x="450" y="220" width="120" height="40" as="geometry" />
        </mxCell>
        <mxCell id="18" value="Hard Landing State" style="rounded=1;whiteSpace=wrap;html=1;fillColor=#d5e8d4;strokeColor=#82b366;fontStyle=1;verticalAlign=middle;" parent="1" vertex="1">
          <mxGeometry x="450" y="-40.000000000000114" width="120" height="40" as="geometry" />
        </mxCell>
        <mxCell id="19" value="!xInput&lt;br&gt;" style="endArrow=classic;html=1;labelBorderColor=#000000;jumpStyle=arc;exitX=1;exitY=0.25;exitDx=0;exitDy=0;entryX=0;entryY=0.25;entryDx=0;entryDy=0;" parent="1" source="5" target="6" edge="1">
          <mxGeometry width="50" height="50" relative="1" as="geometry">
            <mxPoint x="450" y="150" as="sourcePoint" />
            <mxPoint x="570" y="150" as="targetPoint" />
          </mxGeometry>
        </mxCell>
        <mxCell id="20" value="xInput" style="endArrow=classic;html=1;labelBorderColor=#000000;jumpStyle=arc;exitX=0;exitY=0.75;exitDx=0;exitDy=0;entryX=1;entryY=0.75;entryDx=0;entryDy=0;" parent="1" source="6" target="5" edge="1">
          <mxGeometry width="50" height="50" relative="1" as="geometry">
            <mxPoint x="480" y="140" as="sourcePoint" />
            <mxPoint x="600" y="140" as="targetPoint" />
          </mxGeometry>
        </mxCell>
        <mxCell id="21" value="xInput cInput" style="endArrow=classic;html=1;labelBorderColor=#000000;jumpStyle=arc;exitX=0.25;exitY=1;exitDx=0;exitDy=0;entryX=0.25;entryY=0;entryDx=0;entryDy=0;" parent="1" source="5" target="17" edge="1">
          <mxGeometry x="-0.6667" width="50" height="50" relative="1" as="geometry">
            <mxPoint x="590" y="40" as="sourcePoint" />
            <mxPoint x="710" y="40" as="targetPoint" />
            <mxPoint as="offset" />
          </mxGeometry>
        </mxCell>
        <mxCell id="22" value="xInput !cInput" style="endArrow=classic;html=1;labelBorderColor=#000000;jumpStyle=arc;exitX=0.75;exitY=0;exitDx=0;exitDy=0;entryX=0.75;entryY=1;entryDx=0;entryDy=0;" parent="1" source="17" target="5" edge="1">
          <mxGeometry x="-0.6667" width="50" height="50" relative="1" as="geometry">
            <mxPoint x="600" y="150" as="sourcePoint" />
            <mxPoint x="720" y="150" as="targetPoint" />
            <mxPoint as="offset" />
          </mxGeometry>
        </mxCell>
        <mxCell id="23" value="!xInput&lt;br&gt;cInput" style="endArrow=classic;html=1;labelBorderColor=#000000;jumpStyle=arc;exitX=1;exitY=0.25;exitDx=0;exitDy=0;entryX=0;entryY=0.25;entryDx=0;entryDy=0;" parent="1" source="17" target="16" edge="1">
          <mxGeometry x="-0.562" width="50" height="50" relative="1" as="geometry">
            <mxPoint x="650" y="150" as="sourcePoint" />
            <mxPoint x="770" y="150" as="targetPoint" />
            <mxPoint as="offset" />
          </mxGeometry>
        </mxCell>
        <mxCell id="24" value="xInput&lt;br&gt;!cInput" style="endArrow=classic;html=1;labelBorderColor=#000000;jumpStyle=arc;exitX=0;exitY=0.75;exitDx=0;exitDy=0;entryX=1;entryY=0.75;entryDx=0;entryDy=0;" parent="1" source="16" target="17" edge="1">
          <mxGeometry x="-0.6058" width="50" height="50" relative="1" as="geometry">
            <mxPoint x="780" y="140" as="sourcePoint" />
            <mxPoint x="569" y="246" as="targetPoint" />
            <mxPoint as="offset" />
          </mxGeometry>
        </mxCell>
        <mxCell id="25" value="!xInput cInput" style="endArrow=classic;html=1;labelBorderColor=#000000;jumpStyle=arc;exitX=0.25;exitY=1;exitDx=0;exitDy=0;entryX=0.25;entryY=0;entryDx=0;entryDy=0;" parent="1" source="6" target="16" edge="1">
          <mxGeometry x="-0.5" y="-7" width="50" height="50" relative="1" as="geometry">
            <mxPoint x="580" y="80" as="sourcePoint" />
            <mxPoint x="740" y="80" as="targetPoint" />
            <mxPoint as="offset" />
          </mxGeometry>
        </mxCell>
        <mxCell id="26" value="!xInput !cInput" style="endArrow=classic;html=1;labelBorderColor=#000000;jumpStyle=arc;exitX=0.5;exitY=0;exitDx=0;exitDy=0;entryX=0.5;entryY=1;entryDx=0;entryDy=0;" parent="1" source="16" target="6" edge="1">
          <mxGeometry x="-0.6667" y="-13" width="50" height="50" relative="1" as="geometry">
            <mxPoint x="740" y="100" as="sourcePoint" />
            <mxPoint x="580" y="100" as="targetPoint" />
            <mxPoint as="offset" />
          </mxGeometry>
        </mxCell>
        <mxCell id="27" value="!GroundDetected" style="endArrow=classic;html=1;labelBorderColor=#000000;jumpStyle=arc;entryX=0;entryY=0.75;entryDx=0;entryDy=0;exitX=1;exitY=0.5;exitDx=0;exitDy=0;" parent="1" source="4" target="8" edge="1">
          <mxGeometry x="-0.4545" width="50" height="50" relative="1" as="geometry">
            <mxPoint x="860" y="125" as="sourcePoint" />
            <mxPoint x="960" y="120" as="targetPoint" />
            <Array as="points">
              <mxPoint x="900" y="120" />
            </Array>
            <mxPoint as="offset" />
          </mxGeometry>
        </mxCell>
        <mxCell id="28" value="grab&lt;br&gt;Input" style="endArrow=classic;html=1;labelBorderColor=#000000;jumpStyle=arc;" parent="1" edge="1">
          <mxGeometry x="-0.5" width="50" height="50" relative="1" as="geometry">
            <mxPoint x="1220" y="420" as="sourcePoint" />
            <mxPoint x="1100" y="420" as="targetPoint" />
            <mxPoint as="offset" />
          </mxGeometry>
        </mxCell>
        <mxCell id="29" value="neg yInput" style="endArrow=classic;html=1;labelBorderColor=#000000;jumpStyle=arc;entryX=0;entryY=0.75;entryDx=0;entryDy=0;" parent="1" target="11" edge="1">
          <mxGeometry x="-0.3333" width="50" height="50" relative="1" as="geometry">
            <mxPoint x="1100" y="440" as="sourcePoint" />
            <mxPoint x="1280" y="430" as="targetPoint" />
            <mxPoint as="offset" />
          </mxGeometry>
        </mxCell>
        <mxCell id="30" value="pos yInput" style="endArrow=classic;html=1;rounded=1;labelBorderColor=#000000;exitX=0.25;exitY=1;exitDx=0;exitDy=0;jumpStyle=arc;entryX=0.25;entryY=0;entryDx=0;entryDy=0;" parent="1" source="12" target="15" edge="1">
          <mxGeometry width="50" height="50" relative="1" as="geometry">
            <mxPoint x="1530" y="480" as="sourcePoint" />
            <mxPoint x="1420" y="480" as="targetPoint" />
          </mxGeometry>
        </mxCell>
        <mxCell id="31" value="!yInput&lt;br&gt;grab Input" style="endArrow=classic;html=1;rounded=1;labelBorderColor=#000000;exitX=0.75;exitY=0;exitDx=0;exitDy=0;jumpStyle=arc;entryX=0.75;entryY=1;entryDx=0;entryDy=0;" parent="1" source="15" target="12" edge="1">
          <mxGeometry width="50" height="50" relative="1" as="geometry">
            <mxPoint x="1370" y="460" as="sourcePoint" />
            <mxPoint x="1260" y="460" as="targetPoint" />
          </mxGeometry>
        </mxCell>
        <mxCell id="32" value="isTouchingWall&lt;br&gt;xInput at wall&lt;br&gt;yVel &amp;lt; 0" style="endArrow=classic;html=1;rounded=1;labelBorderColor=#000000;exitX=0.5;exitY=1;exitDx=0;exitDy=0;jumpStyle=arc;entryX=0.5;entryY=0;entryDx=0;entryDy=0;" parent="1" source="8" target="11" edge="1">
          <mxGeometry x="-0.1579" width="50" height="50" relative="1" as="geometry">
            <mxPoint x="1130" y="220" as="sourcePoint" />
            <mxPoint x="1020" y="220" as="targetPoint" />
            <Array as="points">
              <mxPoint x="1160" y="240" />
              <mxPoint x="1280" y="240" />
            </Array>
            <mxPoint as="offset" />
          </mxGeometry>
        </mxCell>
        <mxCell id="33" value="isTouchingWall&lt;br&gt;grabInput" style="endArrow=classic;html=1;rounded=1;labelBorderColor=#000000;exitX=0.5;exitY=1;exitDx=0;exitDy=0;jumpStyle=arc;entryX=0.5;entryY=0;entryDx=0;entryDy=0;" parent="1" source="8" target="12" edge="1">
          <mxGeometry x="-0.1579" width="50" height="50" relative="1" as="geometry">
            <mxPoint x="1350" y="220" as="sourcePoint" />
            <mxPoint x="1240" y="220" as="targetPoint" />
            <Array as="points">
              <mxPoint x="1160" y="240" />
              <mxPoint x="1040" y="240" />
            </Array>
            <mxPoint as="offset" />
          </mxGeometry>
        </mxCell>
        <mxCell id="34" value="GroundDetected&lt;br&gt;yVel &amp;lt; thresh" style="endArrow=classic;html=1;rounded=1;labelBorderColor=#000000;exitX=0;exitY=0.25;exitDx=0;exitDy=0;jumpStyle=arc;entryX=1;entryY=0.5;entryDx=0;entryDy=0;" parent="1" source="8" target="40" edge="1">
          <mxGeometry x="0.4249" width="50" height="50" relative="1" as="geometry">
            <mxPoint x="1050" y="40" as="sourcePoint" />
            <mxPoint x="840" y="15" as="targetPoint" />
            <Array as="points">
              <mxPoint x="890" y="100" />
              <mxPoint x="890" y="60" />
              <mxPoint x="890" y="-20" />
            </Array>
            <mxPoint as="offset" />
          </mxGeometry>
        </mxCell>
        <mxCell id="35" value="isTouchingWall&lt;br&gt;grabInput" style="endArrow=classic;html=1;rounded=1;labelBorderColor=#000000;exitX=0.5;exitY=1;exitDx=0;exitDy=0;entryX=0;entryY=0.5;entryDx=0;entryDy=0;" parent="1" source="4" target="12" edge="1">
          <mxGeometry x="-0.7818" width="50" height="50" relative="1" as="geometry">
            <mxPoint x="600" y="400" as="sourcePoint" />
            <mxPoint x="750" y="400" as="targetPoint" />
            <Array as="points">
              <mxPoint x="640" y="430" />
            </Array>
            <mxPoint as="offset" />
          </mxGeometry>
        </mxCell>
        <mxCell id="36" value="GroundDetected&lt;br&gt;!grab Input" style="endArrow=classic;html=1;rounded=1;labelBorderColor=#000000;exitX=0.5;exitY=0;exitDx=0;exitDy=0;jumpStyle=arc;entryX=0.75;entryY=1;entryDx=0;entryDy=0;" parent="1" source="3" target="6" edge="1">
          <mxGeometry x="-0.7111" width="50" height="50" relative="1" as="geometry">
            <mxPoint x="1230" y="290" as="sourcePoint" />
            <mxPoint x="1120" y="290" as="targetPoint" />
            <Array as="points">
              <mxPoint x="1160" y="320" />
              <mxPoint x="960" y="320" />
              <mxPoint x="960" y="160" />
              <mxPoint x="797" y="160" />
            </Array>
            <mxPoint as="offset" />
          </mxGeometry>
        </mxCell>
        <mxCell id="37" value="!isTouchingWall&amp;nbsp;&lt;br&gt;|| !xInput&lt;br&gt;|| !grabInput&lt;br&gt;&amp;amp;&amp;amp; !isGrounded" style="endArrow=classic;html=1;rounded=1;labelBorderColor=#000000;exitX=1;exitY=0.25;exitDx=0;exitDy=0;jumpStyle=arc;entryX=1;entryY=0.75;entryDx=0;entryDy=0;" parent="1" source="3" target="8" edge="1">
          <mxGeometry width="50" height="50" relative="1" as="geometry">
            <mxPoint x="1350" y="160" as="sourcePoint" />
            <mxPoint x="1470" y="190" as="targetPoint" />
            <Array as="points">
              <mxPoint x="1380" y="420" />
              <mxPoint x="1380" y="120" />
            </Array>
          </mxGeometry>
        </mxCell>
        <mxCell id="38" value="Ledge Detected" style="endArrow=classic;html=1;rounded=1;labelBorderColor=#000000;exitX=0;exitY=0.5;exitDx=0;exitDy=0;jumpStyle=arc;entryX=1;entryY=0.5;entryDx=0;entryDy=0;" parent="1" source="3" target="9" edge="1">
          <mxGeometry width="50" height="50" relative="1" as="geometry">
            <mxPoint x="1230" y="480" as="sourcePoint" />
            <mxPoint x="560" y="480" as="targetPoint" />
          </mxGeometry>
        </mxCell>
        <mxCell id="39" value="Ledge Detected" style="endArrow=classic;html=1;rounded=1;labelBorderColor=#000000;exitX=0.25;exitY=1;exitDx=0;exitDy=0;jumpStyle=arc;entryX=0.75;entryY=0;entryDx=0;entryDy=0;" parent="1" source="8" target="9" edge="1">
          <mxGeometry x="0.4157" width="50" height="50" relative="1" as="geometry">
            <mxPoint x="1580" y="380" as="sourcePoint" />
            <mxPoint x="1470" y="380" as="targetPoint" />
            <Array as="points">
              <mxPoint x="1130" y="200" />
              <mxPoint x="880" y="200" />
              <mxPoint x="880" y="410" />
              <mxPoint x="570" y="410" />
            </Array>
            <mxPoint as="offset" />
          </mxGeometry>
        </mxCell>
        <mxCell id="40" value="Land State" style="rounded=1;whiteSpace=wrap;html=1;fillColor=#d5e8d4;fontStyle=1;verticalAlign=middle;strokeColor=#82b366;" parent="1" vertex="1">
          <mxGeometry x="707" y="-40.000000000000114" width="120" height="40" as="geometry" />
        </mxCell>
        <mxCell id="41" value="GroundDetected&lt;br&gt;yVel &amp;gt; thresh" style="endArrow=classic;html=1;rounded=1;labelBorderColor=#000000;exitX=0;exitY=0.25;exitDx=0;exitDy=0;jumpStyle=arc;entryX=1;entryY=0.5;entryDx=0;entryDy=0;" parent="1" source="8" target="18" edge="1">
          <mxGeometry x="-0.2676" width="50" height="50" relative="1" as="geometry">
            <mxPoint x="1110" y="110" as="sourcePoint" />
            <mxPoint x="837" y="-10" as="targetPoint" />
            <Array as="points">
              <mxPoint x="960" y="100" />
              <mxPoint x="960" y="-50" />
              <mxPoint x="620" y="-50" />
              <mxPoint x="620" y="-20" />
            </Array>
            <mxPoint as="offset" />
          </mxGeometry>
        </mxCell>
        <mxCell id="42" value="xInput&lt;br&gt;" style="endArrow=classic;html=1;rounded=1;labelBorderColor=#000000;exitX=0.25;exitY=1;exitDx=0;exitDy=0;jumpStyle=arc;entryX=0.75;entryY=0;entryDx=0;entryDy=0;" parent="1" source="40" target="5" edge="1">
          <mxGeometry x="-0.7209" y="2" width="50" height="50" relative="1" as="geometry">
            <mxPoint x="690" y="20" as="sourcePoint" />
            <mxPoint x="580" y="20" as="targetPoint" />
            <mxPoint as="offset" />
          </mxGeometry>
        </mxCell>
        <mxCell id="43" value="!xInput" style="endArrow=classic;html=1;rounded=1;labelBorderColor=#000000;exitX=0.75;exitY=1;exitDx=0;exitDy=0;jumpStyle=arc;entryX=0.75;entryY=0;entryDx=0;entryDy=0;" parent="1" source="40" target="6" edge="1">
          <mxGeometry width="50" height="50" relative="1" as="geometry">
            <mxPoint x="610" y="10" as="sourcePoint" />
            <mxPoint x="500" y="10" as="targetPoint" />
          </mxGeometry>
        </mxCell>
        <mxCell id="44" value="xInpu" style="endArrow=classic;html=1;rounded=1;labelBorderColor=#000000;exitX=0.25;exitY=1;exitDx=0;exitDy=0;jumpStyle=arc;entryX=0.25;entryY=0;entryDx=0;entryDy=0;" parent="1" source="18" target="5" edge="1">
          <mxGeometry width="50" height="50" relative="1" as="geometry">
            <mxPoint x="730" as="sourcePoint" />
            <mxPoint x="620" as="targetPoint" />
          </mxGeometry>
        </mxCell>
        <mxCell id="45" value="!xInput" style="endArrow=classic;html=1;rounded=1;labelBorderColor=#000000;exitX=0.75;exitY=1;exitDx=0;exitDy=0;jumpStyle=arc;entryX=0.25;entryY=0;entryDx=0;entryDy=0;" parent="1" source="18" target="6" edge="1">
          <mxGeometry x="-0.693" y="-1" width="50" height="50" relative="1" as="geometry">
            <mxPoint x="640" y="10" as="sourcePoint" />
            <mxPoint x="530" y="10" as="targetPoint" />
            <mxPoint as="offset" />
          </mxGeometry>
        </mxCell>
        <mxCell id="46" value="" style="endArrow=classic;html=1;rounded=1;labelBorderColor=#000000;jumpStyle=arc;exitX=1;exitY=0.25;exitDx=0;exitDy=0;entryX=0.5;entryY=1;entryDx=0;entryDy=0;" parent="1" source="8" target="49" edge="1">
          <mxGeometry x="1" y="61" width="50" height="50" relative="1" as="geometry">
            <mxPoint x="1240" y="80" as="sourcePoint" />
            <mxPoint x="1530" y="-30" as="targetPoint" />
            <Array as="points">
              <mxPoint x="1500" y="100" />
              <mxPoint x="1500" y="-460" />
              <mxPoint x="1070" y="-460" />
            </Array>
            <mxPoint x="1" y="-10" as="offset" />
          </mxGeometry>
        </mxCell>
        <mxCell id="47" value="Ability Done&lt;br&gt;!Grounded" style="endArrow=classic;html=1;rounded=1;labelBorderColor=#000000;exitX=0.5;exitY=1;exitDx=0;exitDy=0;jumpStyle=arc;entryX=0.5;entryY=0;entryDx=0;entryDy=0;" parent="1" source="2" target="8" edge="1">
          <mxGeometry x="0.5652" width="50" height="50" relative="1" as="geometry">
            <mxPoint x="1330" y="40" as="sourcePoint" />
            <mxPoint x="1220" y="40" as="targetPoint" />
            <Array as="points">
              <mxPoint x="1115" y="-120" />
              <mxPoint x="1160" y="-120" />
            </Array>
            <mxPoint as="offset" />
          </mxGeometry>
        </mxCell>
        <mxCell id="48" value="Secondary Attack State" style="rounded=1;whiteSpace=wrap;html=1;fillColor=#dae8fc;strokeColor=#6c8ebf;fontStyle=1;verticalAlign=middle;" parent="1" vertex="1">
          <mxGeometry x="930" y="-210" width="120" height="40" as="geometry" />
        </mxCell>
        <mxCell id="49" value="Input&lt;br&gt;Handler" style="shape=offPageConnector;whiteSpace=wrap;html=1;fillColor=#e1d5e7;strokeColor=#9673a6;fontStyle=1;direction=west;align=center;verticalAlign=middle;" parent="1" vertex="1">
          <mxGeometry x="1030" y="-430" width="80" height="80" as="geometry" />
        </mxCell>
        <mxCell id="50" value="Prim Input" style="endArrow=classic;html=1;rounded=1;labelBorderColor=#000000;exitX=0.5;exitY=0;exitDx=0;exitDy=0;jumpStyle=arc;entryX=0.5;entryY=0;entryDx=0;entryDy=0;" parent="1" source="49" target="13" edge="1">
          <mxGeometry x="0.2889" width="50" height="50" relative="1" as="geometry">
            <mxPoint x="790" y="-300" as="sourcePoint" />
            <mxPoint x="680" y="-300" as="targetPoint" />
            <Array as="points">
              <mxPoint x="1070" y="-310" />
              <mxPoint x="910" y="-310" />
            </Array>
            <mxPoint as="offset" />
          </mxGeometry>
        </mxCell>
        <mxCell id="51" value="Sec Input" style="endArrow=classic;html=1;rounded=1;labelBorderColor=#000000;exitX=0.5;exitY=0;exitDx=0;exitDy=0;jumpStyle=arc;entryX=0.5;entryY=0;entryDx=0;entryDy=0;" parent="1" source="49" target="48" edge="1">
          <mxGeometry x="0.2727" width="50" height="50" relative="1" as="geometry">
            <mxPoint x="870" y="-190" as="sourcePoint" />
            <mxPoint x="1310" y="-140" as="targetPoint" />
            <Array as="points">
              <mxPoint x="1070" y="-310" />
              <mxPoint x="990" y="-310" />
            </Array>
            <mxPoint as="offset" />
          </mxGeometry>
        </mxCell>
        <mxCell id="52" value="Dash Input" style="endArrow=classic;html=1;rounded=1;labelBorderColor=#000000;exitX=0.5;exitY=0;exitDx=0;exitDy=0;jumpStyle=arc;entryX=0.5;entryY=0;entryDx=0;entryDy=0;" parent="1" source="49" target="10" edge="1">
          <mxGeometry x="0.4182" width="50" height="50" relative="1" as="geometry">
            <mxPoint x="840" y="-160" as="sourcePoint" />
            <mxPoint x="1310" y="-90" as="targetPoint" />
            <mxPoint as="offset" />
          </mxGeometry>
        </mxCell>
        <mxCell id="53" value="Jump Input&lt;br&gt;CanJump" style="endArrow=classic;html=1;rounded=1;labelBorderColor=#000000;exitX=0.5;exitY=0;exitDx=0;exitDy=0;jumpStyle=arc;entryX=0.5;entryY=0;entryDx=0;entryDy=0;" parent="1" source="49" target="7" edge="1">
          <mxGeometry x="0.2342" y="-2" width="50" height="50" relative="1" as="geometry">
            <mxPoint x="1040" y="-130" as="sourcePoint" />
            <mxPoint x="990" y="-160" as="targetPoint" />
            <Array as="points">
              <mxPoint x="1070" y="-310" />
              <mxPoint x="1150" y="-310" />
            </Array>
            <mxPoint as="offset" />
          </mxGeometry>
        </mxCell>
        <mxCell id="54" value="Jump Input&lt;br&gt;isTouchingWall" style="endArrow=classic;html=1;rounded=1;labelBorderColor=#000000;exitX=0.5;exitY=0;exitDx=0;exitDy=0;jumpStyle=arc;entryX=0.5;entryY=0;entryDx=0;entryDy=0;" parent="1" source="49" target="14" edge="1">
          <mxGeometry x="0.8333" width="50" height="50" relative="1" as="geometry">
            <mxPoint x="970" y="-80" as="sourcePoint" />
            <mxPoint x="860" y="-80" as="targetPoint" />
            <Array as="points">
              <mxPoint x="1070" y="-310" />
              <mxPoint x="1230" y="-310" />
            </Array>
            <mxPoint as="offset" />
          </mxGeometry>
        </mxCell>
        <mxCell id="55" value="Ability Input" style="endArrow=classic;html=1;rounded=1;labelBorderColor=#000000;exitX=1;exitY=0.5;exitDx=0;exitDy=0;jumpStyle=arc;entryX=0.5;entryY=1;entryDx=0;entryDy=0;" parent="1" source="3" target="49" edge="1">
          <mxGeometry width="50" height="50" relative="1" as="geometry">
            <mxPoint x="1640" y="160" as="sourcePoint" />
            <mxPoint x="1030" y="-410" as="targetPoint" />
            <Array as="points">
              <mxPoint x="1500" y="480" />
              <mxPoint x="1500" y="-460" />
              <mxPoint x="1070" y="-460" />
            </Array>
          </mxGeometry>
        </mxCell>
        <mxCell id="56" value="Ability Input" style="endArrow=classic;html=1;rounded=1;labelBorderColor=#000000;exitX=0.5;exitY=0;exitDx=0;exitDy=0;jumpStyle=arc;entryX=0.5;entryY=1;entryDx=0;entryDy=0;" parent="1" source="4" target="49" edge="1">
          <mxGeometry x="-0.8372" width="50" height="50" relative="1" as="geometry">
            <mxPoint x="850" y="-430" as="sourcePoint" />
            <mxPoint x="990" y="-520" as="targetPoint" />
            <Array as="points">
              <mxPoint x="640" y="-460" />
              <mxPoint x="1070" y="-460" />
            </Array>
            <mxPoint as="offset" />
          </mxGeometry>
        </mxCell>
        <mxCell id="57" value="Ability Done&lt;br&gt;Grounded" style="endArrow=classic;html=1;rounded=1;labelBorderColor=#000000;exitX=0.5;exitY=1;exitDx=0;exitDy=0;jumpStyle=arc;entryX=0.75;entryY=0;entryDx=0;entryDy=0;" parent="1" source="2" target="4" edge="1">
          <mxGeometry width="50" height="50" relative="1" as="geometry">
            <mxPoint x="920" y="-190" as="sourcePoint" />
            <mxPoint x="810" y="-190" as="targetPoint" />
            <Array as="points">
              <mxPoint x="1115" y="-120" />
              <mxPoint x="740" y="-120" />
            </Array>
          </mxGeometry>
        </mxCell>
        <mxCell id="58" value="LedgeClimbDone" style="endArrow=classic;html=1;labelBorderColor=#000000;jumpStyle=arc;exitX=0.5;exitY=0;exitDx=0;exitDy=0;entryX=1;entryY=0.5;entryDx=0;entryDy=0;" parent="1" source="9" target="6" edge="1">
          <mxGeometry x="-0.7817" width="50" height="50" relative="1" as="geometry">
            <mxPoint x="483" y="410" as="sourcePoint" />
            <mxPoint x="360" y="370" as="targetPoint" />
            <Array as="points">
              <mxPoint x="540" y="340" />
              <mxPoint x="860" y="340" />
              <mxPoint x="860" y="80" />
            </Array>
            <mxPoint as="offset" />
          </mxGeometry>
        </mxCell>
        <mxCell id="59" value="Dodge Roll" style="rounded=1;whiteSpace=wrap;html=1;fillColor=#d5e8d4;strokeColor=#82b366;fontStyle=1;verticalAlign=middle;" parent="1" vertex="1">
          <mxGeometry x="1250" y="-210" width="120" height="40" as="geometry" />
        </mxCell>
        <mxCell id="60" value="Dodge&lt;br&gt;Input" style="endArrow=classic;html=1;labelBorderColor=#000000;jumpStyle=arc;exitX=0.5;exitY=0;exitDx=0;exitDy=0;entryX=0.5;entryY=0;entryDx=0;entryDy=0;" parent="1" source="49" target="59" edge="1">
          <mxGeometry x="0.5789" width="50" height="50" relative="1" as="geometry">
            <mxPoint x="1210" y="-350" as="sourcePoint" />
            <mxPoint x="1330" y="-350" as="targetPoint" />
            <Array as="points">
              <mxPoint x="1070" y="-310" />
              <mxPoint x="1310" y="-310" />
            </Array>
            <mxPoint as="offset" />
          </mxGeometry>
        </mxCell>
      </root>
    </mxGraphModel>
  </diagram>
  <diagram id="a2bIOE7Hb887vJWbLw9C" name="Entity">
    <mxGraphModel dx="1422" dy="794" grid="1" gridSize="10" guides="1" tooltips="1" connect="1" arrows="1" fold="1" page="1" pageScale="1" pageWidth="827" pageHeight="1169" math="0" shadow="0">
      <root>
        <mxCell id="1WXb9xj-Vt37imG8ORWK-0" />
        <mxCell id="1WXb9xj-Vt37imG8ORWK-1" parent="1WXb9xj-Vt37imG8ORWK-0" />
        <mxCell id="4jlZG6eIaV7FU1qFDPMF-2" value="" style="edgeStyle=orthogonalEdgeStyle;rounded=0;orthogonalLoop=1;jettySize=auto;html=1;" parent="1WXb9xj-Vt37imG8ORWK-1" source="4jlZG6eIaV7FU1qFDPMF-0" target="4jlZG6eIaV7FU1qFDPMF-1" edge="1">
          <mxGeometry relative="1" as="geometry" />
        </mxCell>
        <mxCell id="AmOcdOFXmS51wbEoAMeG-1" value="" style="edgeStyle=orthogonalEdgeStyle;rounded=0;orthogonalLoop=1;jettySize=auto;html=1;" parent="1WXb9xj-Vt37imG8ORWK-1" source="4jlZG6eIaV7FU1qFDPMF-0" target="AmOcdOFXmS51wbEoAMeG-0" edge="1">
          <mxGeometry relative="1" as="geometry" />
        </mxCell>
        <mxCell id="4jlZG6eIaV7FU1qFDPMF-0" value="&lt;b&gt;&lt;font style=&quot;font-size: 16px&quot;&gt;Entity&lt;/font&gt;&lt;/b&gt;" style="shape=trapezoid;perimeter=trapezoidPerimeter;whiteSpace=wrap;html=1;fixedSize=1;fillColor=#e1d5e7;strokeColor=#9673a6;" parent="1WXb9xj-Vt37imG8ORWK-1" vertex="1">
          <mxGeometry x="330" y="30" width="120" height="90" as="geometry" />
        </mxCell>
        <mxCell id="4jlZG6eIaV7FU1qFDPMF-1" value="&lt;b&gt;&lt;font style=&quot;font-size: 16px&quot;&gt;Player&lt;/font&gt;&lt;/b&gt;" style="whiteSpace=wrap;html=1;strokeColor=#d6b656;fillColor=#fff2cc;" parent="1WXb9xj-Vt37imG8ORWK-1" vertex="1">
          <mxGeometry x="120" y="220" width="120" height="60" as="geometry" />
        </mxCell>
        <mxCell id="LAaWzTFBQqWZUuBZSHeJ-1" value="" style="edgeStyle=orthogonalEdgeStyle;rounded=0;orthogonalLoop=1;jettySize=auto;html=1;" parent="1WXb9xj-Vt37imG8ORWK-1" source="AmOcdOFXmS51wbEoAMeG-0" target="LAaWzTFBQqWZUuBZSHeJ-0" edge="1">
          <mxGeometry relative="1" as="geometry" />
        </mxCell>
        <mxCell id="LAaWzTFBQqWZUuBZSHeJ-6" value="" style="edgeStyle=orthogonalEdgeStyle;rounded=0;orthogonalLoop=1;jettySize=auto;html=1;" parent="1WXb9xj-Vt37imG8ORWK-1" source="AmOcdOFXmS51wbEoAMeG-0" target="LAaWzTFBQqWZUuBZSHeJ-5" edge="1">
          <mxGeometry relative="1" as="geometry" />
        </mxCell>
        <mxCell id="AmOcdOFXmS51wbEoAMeG-0" value="&lt;font style=&quot;font-size: 16px&quot;&gt;&lt;b&gt;Enemy&lt;/b&gt;&lt;/font&gt;" style="whiteSpace=wrap;html=1;strokeColor=#d6b656;fillColor=#fff2cc;" parent="1WXb9xj-Vt37imG8ORWK-1" vertex="1">
          <mxGeometry x="530" y="220" width="120" height="60" as="geometry" />
        </mxCell>
        <mxCell id="LAaWzTFBQqWZUuBZSHeJ-0" value="Defensive Enemy" style="whiteSpace=wrap;html=1;strokeColor=#d6b656;fillColor=#fff2cc;fontStyle=1;fontSize=15;" parent="1WXb9xj-Vt37imG8ORWK-1" vertex="1">
          <mxGeometry x="390" y="370" width="140" height="80" as="geometry" />
        </mxCell>
        <mxCell id="LAaWzTFBQqWZUuBZSHeJ-5" value="&lt;span style=&quot;font-size: 14px; text-align: left;&quot;&gt;Aggressive Enemy&lt;/span&gt;" style="whiteSpace=wrap;html=1;strokeColor=#d6b656;fillColor=#fff2cc;fontStyle=1;labelBackgroundColor=none;" parent="1WXb9xj-Vt37imG8ORWK-1" vertex="1">
          <mxGeometry x="630" y="370" width="140" height="80" as="geometry" />
        </mxCell>
      </root>
    </mxGraphModel>
  </diagram>
</mxfile>
